<?xml version="1.0" encoding="UTF-8" standalone="no"?>
<svg width="622px" height="363px" viewBox="0 0 622 363" version="1.1" xmlns="http://www.w3.org/2000/svg" xmlns:xlink="http://www.w3.org/1999/xlink" xmlns:sketch="http://www.bohemiancoding.com/sketch/ns">
    <!-- Generator: Sketch 3.0.1 (7597) - http://www.bohemiancoding.com/sketch -->
    <title>integrated-commenting</title>
    <description>Created with Sketch.</description>
    <defs>
        <rect id="path-1" x="0" y="0" width="622" height="363" rx="4"></rect>
    </defs>
    <g id="Page-1" stroke="none" stroke-width="1" fill="none" fill-rule="evenodd" sketch:type="MSPage">
        <g id="Feature" sketch:type="MSLayerGroup">
            <g id="integrated-commenting">
                <mask id="mask-2" sketch:name="Rectangle 2" fill="white">
                    <use xlink:href="#path-1"></use>
                </mask>
                <use id="Rectangle-2" fill="#514D6C" sketch:type="MSShapeGroup" xlink:href="#path-1"></use>
                <text id="No-longer-do-comment" sketch:type="MSTextLayer" mask="url(#mask-2)" font-family="BLOKK" font-size="25" font-weight="normal" line-spacing="31" letter-spacing="-0.400000006" fill="#3F3C53">
                    <tspan x="-29" y="37">No longer do commenters need </tspan>
                    <tspan x="-29" y="68">to scroll to the bottom of the </tspan>
                    <tspan x="-29" y="99">page to make a comment. Just </tspan>
                    <tspan x="-29" y="130">insert your thoughts right </tspan>
                    <tspan x="-29" y="161">into the most relevant spot </tspan>
                    <tspan x="-29" y="192">in the article. Ouija takes </tspan>
                    <tspan x="-29" y="223">care of everything.</tspan>
                </text>
                <g id="Comment-Illo" mask="url(#mask-2)">
                    <g transform="translate(323.000000, 28.000000)">
                        <path d="M20,0.5 L20,306" id="Line" stroke="#5F5C77" stroke-width="2" stroke-linecap="square" stroke-dasharray="1,4" fill="none" sketch:type="MSShapeGroup"></path>
                        <path d="M19,30 C25.0751322,30 30,25.0751322 30,19 C30,12.9248678 25.0751322,8 19,8 C12.9248678,8 4.58965692e-15,17.9251404 0,19 C-4.46661647e-15,20.0748596 12.9248678,30 19,30 Z" id="Oval-1" stroke="none" fill="#D66D28" fill-rule="evenodd" sketch:type="MSShapeGroup"></path>
                        <text id="2" stroke="none" opacity="0.559818097" fill="none" sketch:type="MSTextLayer" font-family="Helvetica Neue" font-size="13" font-weight="bold">
                            <tspan x="15" y="23" fill="#FFFFFF">2</tspan>
                        </text>
                        <g id="Comment" stroke="none" stroke-width="1" fill="none" fill-rule="evenodd" sketch:type="MSLayerGroup" transform="translate(55.000000, 7.000000)">
                            <g id="Content" transform="translate(42.000000, 2.000000)" font-weight="normal" sketch:type="MSTextLayer">
                                <text id="Matt" font-family="Helvetica Neue" font-size="20" fill="#9C98BC">
                                    <tspan x="0" y="19">Matt</tspan>
                                </text>
                                <text id="No-longer-do-comment" font-family="BLOKK" font-size="13" line-spacing="15" letter-spacing="-0.307999969" fill="#938FB0">
                                    <tspan x="0" y="35">No longer do commenters </tspan>
                                    <tspan x="0" y="50">need to scroll to the </tspan>
                                    <tspan x="0" y="65">bottom of the</tspan>
                                </text>
                            </g>
                            <g id="Rectangle-3-+-Imported-Layers" sketch:type="MSShapeGroup">
                                <rect id="Rectangle-3" stroke="#9C98BC" stroke-width="2" fill="#3F3C53" x="0" y="0" width="31" height="31" rx="4"></rect>
                                <path d="M21.6598334,20.1949 C19.0373081,19.2465889 18.1990192,18.4466889 18.1990192,16.7337333 C18.1990192,15.7056222 18.9998617,16.0412889 19.3515601,14.1583889 C19.4973032,13.3770667 20.2045297,14.1457222 20.3400602,12.3624667 C20.3400602,11.6516556 19.9538941,11.4751667 19.9538941,11.4751667 C19.9538941,11.4751667 20.1500622,10.4234111 20.2270827,9.61401111 C20.3221881,8.60553333 19.6398549,6 15.9998936,6 C12.3601451,6 11.6773864,8.60553333 11.7729173,9.61401111 C11.8499378,10.4234111 12.0461059,11.4751667 12.0461059,11.4751667 C12.0461059,11.4751667 11.6599398,11.6516556 11.6599398,12.3624667 C11.7950447,14.1457222 12.5022713,13.3770667 12.6482271,14.1583889 C13.0001383,16.0412889 13.8005553,15.7056222 13.8005553,16.7337333 C13.8005553,18.4466889 12.9626919,19.2465889 10.3401666,20.1949 C7.70934352,21.1461667 6,22.1160111 6,22.7774222 L6,25 L26,25 L26,22.7774222 C26,22.1160111 24.2906565,21.1461667 21.6598334,20.1949" id="Imported-Layers" fill="#9C98BC"></path>
                            </g>
                        </g>
                        <g id="Comment-2" stroke="none" stroke-width="1" fill="none" fill-rule="evenodd" sketch:type="MSLayerGroup" transform="translate(55.000000, 105.000000)">
                            <g id="Content" transform="translate(42.000000, 2.000000)" font-weight="normal" sketch:type="MSTextLayer">
                                <text id="Colin" font-family="Helvetica Neue" font-size="20" fill="#9C98BC">
                                    <tspan x="0" y="19">Colin</tspan>
                                </text>
                                <text id="er-do-comme-nters-ne" font-family="BLOKK" font-size="13" line-spacing="15" letter-spacing="-0.307999969" fill="#938FB0">
                                    <tspan x="0" y="35">er do comme nters need to  </tspan>
                                    <tspan x="0" y="50">to the bottom of the</tspan>
                                </text>
                            </g>
                            <g id="Rectangle-3-+-Imported-Layers" sketch:type="MSShapeGroup">
                                <rect id="Rectangle-3" stroke="#9C98BC" stroke-width="2" fill="#3F3C53" x="0" y="0" width="31" height="31" rx="4"></rect>
                                <path d="M21.6598334,20.1949 C19.0373081,19.2465889 18.1990192,18.4466889 18.1990192,16.7337333 C18.1990192,15.7056222 18.9998617,16.0412889 19.3515601,14.1583889 C19.4973032,13.3770667 20.2045297,14.1457222 20.3400602,12.3624667 C20.3400602,11.6516556 19.9538941,11.4751667 19.9538941,11.4751667 C19.9538941,11.4751667 20.1500622,10.4234111 20.2270827,9.61401111 C20.3221881,8.60553333 19.6398549,6 15.9998936,6 C12.3601451,6 11.6773864,8.60553333 11.7729173,9.61401111 C11.8499378,10.4234111 12.0461059,11.4751667 12.0461059,11.4751667 C12.0461059,11.4751667 11.6599398,11.6516556 11.6599398,12.3624667 C11.7950447,14.1457222 12.5022713,13.3770667 12.6482271,14.1583889 C13.0001383,16.0412889 13.8005553,15.7056222 13.8005553,16.7337333 C13.8005553,18.4466889 12.9626919,19.2465889 10.3401666,20.1949 C7.70934352,21.1461667 6,22.1160111 6,22.7774222 L6,25 L26,25 L26,22.7774222 C26,22.1160111 24.2906565,21.1461667 21.6598334,20.1949" id="Imported-Layers" fill="#9C98BC"></path>
                            </g>
                        </g>
                        <g id="Comment-3" stroke="none" stroke-width="1" fill="none" fill-rule="evenodd" sketch:type="MSLayerGroup" transform="translate(55.000000, 207.000000)">
                            <g id="Content" transform="translate(42.000000, 2.000000)" font-size="20" font-family="Helvetica Neue" fill="#9C98BC" sketch:type="MSTextLayer" font-weight="normal">
                                <text id="Nick">
                                    <tspan x="0" y="19">Nick</tspan>
                                </text>
                            </g>
                            <g id="Rectangle-3-+-Imported-Layers" sketch:type="MSShapeGroup">
                                <rect id="Rectangle-3" stroke="#9C98BC" stroke-width="2" fill="#9C98BC" x="0" y="0" width="31" height="31" rx="4"></rect>
                                <path d="M21.6598334,20.1949 C19.0373081,19.2465889 18.1990192,18.4466889 18.1990192,16.7337333 C18.1990192,15.7056222 18.9998617,16.0412889 19.3515601,14.1583889 C19.4973032,13.3770667 20.2045297,14.1457222 20.3400602,12.3624667 C20.3400602,11.6516556 19.9538941,11.4751667 19.9538941,11.4751667 C19.9538941,11.4751667 20.1500622,10.4234111 20.2270827,9.61401111 C20.3221881,8.60553333 19.6398549,6 15.9998936,6 C12.3601451,6 11.6773864,8.60553333 11.7729173,9.61401111 C11.8499378,10.4234111 12.0461059,11.4751667 12.0461059,11.4751667 C12.0461059,11.4751667 11.6599398,11.6516556 11.6599398,12.3624667 C11.7950447,14.1457222 12.5022713,13.3770667 12.6482271,14.1583889 C13.0001383,16.0412889 13.8005553,15.7056222 13.8005553,16.7337333 C13.8005553,18.4466889 12.9626919,19.2465889 10.3401666,20.1949 C7.70934352,21.1461667 6,22.1160111 6,22.7774222 L6,25 L26,25 L26,22.7774222 C26,22.1160111 24.2906565,21.1461667 21.6598334,20.1949" id="Imported-Layers" fill="#3F3C53"></path>
                            </g>
                        </g>
                        <rect id="Rectangle-6" stroke="none" fill="#3F3C53" fill-rule="evenodd" sketch:type="MSShapeGroup" x="96" y="242" width="158" height="45" rx="3"></rect>
                        <path d="M54.5,188 L258.796356,188" id="Line" stroke="#5F5C77" stroke-width="2" stroke-linecap="square" fill="none" sketch:type="MSShapeGroup"></path>
                    </g>
                </g>
            </g>
        </g>
    </g>
</svg>