<?xml version="1.0" encoding="UTF-8" standalone="no"?>
<svg width="202px" height="273px" viewBox="0 0 202 273" version="1.1" xmlns="http://www.w3.org/2000/svg" xmlns:xlink="http://www.w3.org/1999/xlink" xmlns:sketch="http://www.bohemiancoding.com/sketch/ns">
    <!-- Generator: Sketch 3.0.1 (7597) - http://www.bohemiancoding.com/sketch -->
    <title>shadowlogo</title>
    <description>Created with Sketch.</description>
    <defs></defs>
    <g id="Page-1" stroke="none" stroke-width="1" fill="none" fill-rule="evenodd" sketch:type="MSPage">
        <g id="Site" sketch:type="MSArtboardGroup" transform="translate(-289.000000, -122.000000)" fill="#2C273C" opacity="0.390333489">
            <g id="Header" sketch:type="MSLayerGroup" transform="translate(247.000000, 85.000000)">
                <g id="Logo" transform="translate(0.000000, 22.000000)" sketch:type="MSShapeGroup">
                    <path d="M44.1599282,176.056489 C55.2090444,213.10772 84.6296478,210.564274 99.953576,227.802428 C115.276407,245.0412 113.015562,278.13932 145.950597,290.570171 C228.579223,320.597764 279.253191,62.7494164 262.960956,44.4194507 C246.668173,26.0888679 17.4681383,83.0988322 44.1599282,176.056489 L44.1599282,176.056489 Z M222.723277,91.4482863 C237.758908,108.045393 237.758908,134.955064 222.723277,151.55217 C207.6893,168.148668 183.311114,168.149885 168.275483,151.55217 C153.241506,134.953847 153.241506,108.044176 168.275483,91.4482863 C183.311114,74.8505712 207.687646,74.8505712 222.723277,91.4482863 L222.723277,91.4482863 Z" id="shadow" transform="translate(154.000000, 167.000000) rotate(-18.000000) translate(-154.000000, -167.000000) "></path>
                </g>
            </g>
        </g>
    </g>
</svg>